<svg width="200" height="200" viewBox="0 0 200 200" fill="none" xmlns="http://www.w3.org/2000/svg">
  <defs>
    <linearGradient id="aiGrad1" x1="0%" y1="0%" x2="100%" y2="0%">
      <stop offset="0%" style="stop-color:#FF00C1;stop-opacity:1" />
      <stop offset="100%" style="stop-color:#F4AC24;stop-opacity:1" />
    </linearGradient>
    <linearGradient id="aiGrad2" x1="0%" y1="100%" x2="100%" y2="0%">
      <stop offset="0%" style="stop-color:#A76DFC;stop-opacity:1" />
      <stop offset="100%" style="stop-color:#5C1CB2;stop-opacity:1" />
    </linearGradient>
  </defs>

  <!-- AI Symbol Outer Circle -->
  <circle cx="100" cy="100" r="90" fill="url(#aiGrad1)" />

  <!-- AI Circuit Design -->
  <path d="M100 40C110 40 120 50 120 60C120 65 115 70 110 70C115 75 120 80 120 90C120 100 110 110 100 110C90 110 80 100 80 90C80 80 85 75 90 70C85 70 80 65 80 60C80 50 90 40 100 40ZM100 85C105 85 110 80 110 75C110 70 105 65 100 65C95 65 90 70 90 75C90 80 95 85 100 85Z" fill="url(#aiGrad2)" />

  <!-- AI Label -->
  <text x="50%" y="170" font-size="20" fill="#FFFFFF" text-anchor="middle" font-family="Arial, sans-serif">AI</text>
</svg>